<?xml version="1.0" standalone="no"?>
<!DOCTYPE svg PUBLIC "-//W3C//DTD SVG 20010904//EN"
 "http://www.w3.org/TR/2001/REC-SVG-20010904/DTD/svg10.dtd">
<svg version="1.0" xmlns="http://www.w3.org/2000/svg"
 width="500.000000pt" height="500.000000pt" viewBox="0 0 500.000000 500.000000"
 preserveAspectRatio="xMidYMid meet">

<g transform="translate(0.000000,500.000000) scale(0.100000,-0.100000)"
fill="#000000" stroke="none">
<path d="M2258 3703 c7 -3 16 -2 19 1 4 3 -2 6 -13 5 -11 0 -14 -3 -6 -6z"/>
<path d="M2728 3703 c7 -3 16 -2 19 1 4 3 -2 6 -13 5 -11 0 -14 -3 -6 -6z"/>
<path d="M2305 3685 c-303 -57 -565 -213 -745 -446 -273 -353 -326 -820 -139
-1235 30 -69 118 -207 163 -259 15 -16 4 6 -24 49 -128 200 -184 385 -200 655
l-8 136 2 -155 c2 -148 1 -152 -11 -100 -21 85 -11 353 17 455 57 214 164 407
303 547 54 55 167 148 181 148 2 0 34 18 70 40 63 38 104 52 91 29 -4 -5 10
-2 32 7 176 77 271 97 458 98 124 0 166 -4 245 -23 260 -65 491 -219 652 -435
69 -93 158 -268 183 -361 10 -36 22 -65 26 -65 12 0 11 17 -1 25 -5 3 -7 12
-4 20 3 7 -4 35 -17 62 -12 26 -21 51 -21 56 5 23 -103 220 -153 277 -31 36
-77 89 -103 119 -43 49 -194 171 -212 171 -15 0 -92 54 -81 58 19 6 81 -32
226 -141 66 -49 178 -164 203 -206 14 -26 29 -48 33 -51 3 -3 14 -18 23 -35 9
-16 27 -48 41 -70 27 -46 45 -82 70 -143 28 -65 28 -43 0 27 -142 362 -450
633 -830 727 -129 32 -349 41 -470 19z"/>
<path d="M2778 3693 c7 -3 16 -2 19 1 4 3 -2 6 -13 5 -11 0 -14 -3 -6 -6z"/>
<path d="M2818 3683 c7 -3 16 -2 19 1 4 3 -2 6 -13 5 -11 0 -14 -3 -6 -6z"/>
<path d="M2890 3660 c8 -5 20 -10 25 -10 6 0 3 5 -5 10 -8 5 -19 10 -25 10 -5
0 -3 -5 5 -10z"/>
<path d="M2359 3621 c12 -8 51 -4 51 5 0 2 -15 4 -32 4 -23 0 -29 -3 -19 -9z"/>
<path d="M2618 3623 c7 -3 16 -2 19 1 4 3 -2 6 -13 5 -11 0 -14 -3 -6 -6z"/>
<path d="M2238 3603 c-32 -8 -58 -19 -58 -24 0 -11 14 -12 24 -2 4 4 13 8 19
9 35 2 98 18 103 25 7 12 -21 10 -88 -8z"/>
<path d="M2670 3616 c0 -9 30 -14 35 -6 4 6 -3 10 -14 10 -12 0 -21 -2 -21 -4z"/>
<path d="M2728 3603 c7 -3 16 -2 19 1 4 3 -2 6 -13 5 -11 0 -14 -3 -6 -6z"/>
<path d="M3030 3606 c0 -3 9 -10 20 -16 11 -6 20 -8 20 -6 0 3 -9 10 -20 16
-11 6 -20 8 -20 6z"/>
<path d="M2765 3590 c3 -5 8 -10 11 -10 2 0 4 5 4 10 0 6 -5 10 -11 10 -5 0
-7 -4 -4 -10z"/>
<path d="M2150 3569 c0 -5 5 -7 10 -4 6 3 10 8 10 11 0 2 -4 4 -10 4 -5 0 -10
-5 -10 -11z"/>
<path d="M2078 3548 c-27 -11 -48 -24 -48 -29 0 -8 88 27 105 42 15 15 -6 10
-57 -13z"/>
<path d="M1944 3514 c-18 -14 -18 -14 6 -3 31 14 36 19 24 19 -6 0 -19 -7 -30
-16z"/>
<path d="M3170 3526 c0 -2 14 -14 30 -26 17 -12 30 -19 30 -16 0 2 -13 14 -30
26 -16 12 -30 19 -30 16z"/>
<path d="M1954 3484 c-265 -159 -455 -418 -535 -729 -21 -78 -24 -114 -24
-275 0 -141 4 -204 18 -264 9 -44 19 -82 22 -84 13 -13 12 9 -1 68 -9 36 -18
140 -21 231 -8 242 20 378 122 583 91 182 218 324 398 440 76 50 96 66 84 66
-2 0 -30 -16 -63 -36z"/>
<path d="M3019 3492 c14 -11 38 -27 55 -37 l31 -17 -24 20 c-14 11 -38 27 -55
37 l-31 17 24 -20z"/>
<path d="M3336 3385 c111 -111 171 -190 238 -316 54 -99 61 -96 11 5 -60 120
-216 313 -310 382 -21 16 6 -16 61 -71z"/>
<path d="M2540 3447 c0 -2 61 -50 135 -106 l135 -101 0 -116 c0 -111 -1 -115
-20 -109 -11 4 -20 2 -20 -4 0 -6 -6 -11 -14 -11 -18 0 -40 26 -28 34 13 8 24
69 16 90 -12 31 -24 16 -24 -30 0 -40 -2 -45 -17 -39 -100 38 -233 44 -343 15
-41 -11 -76 -20 -77 -20 -2 0 -3 18 -3 41 0 24 -4 38 -10 34 -5 -3 -10 0 -10
8 0 8 -3 28 -6 45 -5 23 -1 34 12 45 120 98 226 177 237 177 17 0 228 -156
242 -179 6 -9 13 -38 16 -66 l6 -50 -1 60 -1 60 -95 72 c-52 40 -112 85 -132
99 l-36 26 -129 -97 -128 -96 -5 -102 c-5 -92 -7 -102 -27 -113 -17 -8 -20
-13 -11 -22 9 -9 7 -15 -8 -27 -10 -8 -22 -15 -26 -15 -10 0 3 63 14 71 14 9
-16 59 -35 59 -17 0 -17 -1 -2 -17 30 -30 11 -78 -58 -147 -76 -75 -130 -167
-154 -257 -15 -59 -20 -68 -42 -71 -48 -7 -62 1 -56 30 5 27 5 27 -5 3 -16
-37 -4 -61 33 -63 18 -1 5 -4 -28 -8 l-60 -7 68 -1 68 -2 -3 -37 -3 -38 -65
-5 c-76 -6 -68 -19 11 -19 64 1 79 11 80 53 1 30 1 30 9 6 7 -23 8 -22 9 11 2
71 23 156 58 228 70 147 238 278 380 297 50 7 54 9 28 14 -24 5 -15 8 47 18
42 6 91 9 109 5 30 -6 31 -7 14 -20 -18 -12 -17 -13 6 -13 13 0 35 -3 49 -6
22 -4 21 -3 -5 10 l-30 14 30 1 c17 0 41 -6 55 -14 l25 -14 -24 -1 c-16 0 -1
-11 50 -37 90 -45 200 -150 246 -238 34 -63 45 -62 16 2 -22 49 -75 119 -122
160 -20 18 -31 33 -25 33 21 0 157 -161 174 -206 6 -15 13 -24 16 -21 13 12
-63 125 -128 191 -63 63 -68 71 -68 112 0 24 4 44 9 44 16 0 105 -75 150 -126
24 -27 57 -73 73 -101 17 -29 35 -53 40 -53 6 0 3 10 -6 23 -9 12 -19 29 -23
37 -29 68 -209 238 -239 226 -16 -6 -21 10 -29 100 l-7 72 -96 70 c-54 39
-116 85 -139 102 -24 18 -43 30 -43 27z m-273 -432 c-4 -8 -11 -15 -17 -15 -6
0 -6 7 2 20 14 22 24 19 15 -5z m573 -45 c6 -11 7 -20 2 -20 -10 0 -32 21 -32
32 0 16 19 8 30 -12z m-690 -33 c0 -2 -10 -12 -22 -23 l-23 -19 19 23 c18 21
26 27 26 19z m-60 -60 c0 -2 -10 -12 -21 -23 -22 -19 -22 -19 -10 4 10 18 31
31 31 19z m-148 -323 c-3 -17 -8 -22 -15 -15 -11 11 -3 41 11 41 5 0 7 -12 4
-26z"/>
<path d="M3110 3436 c0 -2 8 -10 18 -17 15 -13 16 -12 3 4 -13 16 -21 21 -21
13z"/>
<path d="M3231 3329 c47 -46 102 -104 123 -129 l38 -45 -38 50 c-51 68 -99
119 -159 167 -30 25 -15 7 36 -43z"/>
<path d="M1699 3323 l-24 -28 28 24 c25 23 32 31 24 31 -2 0 -14 -12 -28 -27z"/>
<path d="M3420 3100 c6 -11 13 -20 16 -20 2 0 0 9 -6 20 -6 11 -13 20 -16 20
-2 0 0 -9 6 -20z"/>
<path d="M2762 3050 c0 -14 2 -19 5 -12 2 6 2 18 0 25 -3 6 -5 1 -5 -13z"/>
<path d="M2478 3053 c12 -2 32 -2 45 0 12 2 2 4 -23 4 -25 0 -35 -2 -22 -4z"/>
<path d="M2014 2978 c-42 -45 -99 -113 -68 -83 34 33 126 135 123 135 -3 0
-27 -24 -55 -52z"/>
<path d="M3626 2961 c10 -37 33 -88 33 -71 0 8 -9 33 -20 55 -10 22 -16 29
-13 16z"/>
<path d="M2354 2950 c-166 -53 -281 -181 -320 -358 -15 -66 -16 -89 -6 -156
25 -174 141 -323 300 -385 57 -23 167 -40 142 -22 -17 12 -19 12 88 14 34 1
62 -1 62 -4 0 -3 12 -4 28 -1 15 3 21 7 14 10 -10 3 -7 8 7 19 12 8 29 12 39
9 24 -8 101 43 152 101 189 215 144 561 -93 714 -120 78 -280 101 -413 59z
m197 -18 c-5 -9 -19 -26 -31 -37 l-22 -20 -24 28 c-13 16 -24 32 -24 38 0 5
25 9 55 9 50 0 55 -2 46 -18z m-93 -39 l42 -48 45 49 c40 43 49 48 68 39 12
-6 48 -23 79 -38 221 -102 315 -376 206 -595 -18 -36 -38 -64 -44 -63 -7 1
-20 -8 -30 -20 -16 -18 -16 -20 -1 -8 9 7 17 9 17 4 0 -16 -38 -46 -49 -39 -5
4 -13 1 -17 -5 -5 -8 -2 -10 7 -5 8 4 3 -2 -11 -15 -14 -12 -54 -36 -90 -53
-61 -29 -72 -31 -181 -31 -113 0 -117 1 -190 37 -94 46 -168 122 -212 215 -60
129 -47 300 32 424 48 76 156 159 226 174 19 4 7 -5 -32 -24 -262 -132 -332
-447 -149 -674 30 -38 138 -117 160 -117 6 0 -11 13 -39 29 -59 34 -135 112
-163 168 -26 50 -47 162 -33 176 6 6 75 -55 204 -182 106 -105 198 -191 203
-191 5 0 99 90 208 199 110 110 204 197 209 194 14 -9 2 104 -15 147 -14 33
-14 31 -11 -50 l4 -85 -200 -200 -201 -200 -201 200 -200 200 6 45 c4 25 7 55
6 68 -3 79 138 232 251 273 l37 13 56 -60 c48 -52 56 -57 67 -43 30 37 75 86
86 93 7 4 45 -9 86 -28 68 -33 105 -65 164 -141 l23 -30 -18 33 c-30 55 -118
131 -191 164 l-67 30 -52 -58 -53 -59 -47 54 c-59 67 -68 81 -51 81 7 0 32
-21 56 -47z m489 -275 c-3 -7 -5 -2 -5 12 0 14 2 19 5 13 2 -7 2 -19 0 -25z"/>
<path d="M2525 2736 c21 -27 24 -39 16 -54 -14 -26 -40 -46 -48 -38 -4 4 -1
11 6 15 9 6 10 11 2 15 -18 11 -2 28 20 21 25 -8 24 7 -1 30 -20 18 -21 18
-35 -1 -8 -10 -15 -23 -15 -27 0 -5 -5 -5 -11 -1 -15 9 21 -54 39 -69 10 -8
19 -4 37 19 14 16 24 35 25 42 0 16 -42 82 -53 82 -4 0 4 -15 18 -34z m-35
-67 c0 -6 -4 -7 -10 -4 -5 3 -10 11 -10 16 0 6 5 7 10 4 6 -3 10 -11 10 -16z"/>
<path d="M2738 2676 c-15 -18 -33 -33 -41 -33 -8 0 -42 -16 -75 -37 -34 -21
-66 -35 -71 -32 -10 6 -8 -21 3 -47 7 -14 11 -15 23 -6 11 10 11 14 1 22 -10
7 -9 8 3 4 10 -3 32 11 60 39 23 24 45 41 48 39 2 -3 -26 -36 -62 -74 -37 -38
-67 -74 -67 -80 0 -6 -6 -10 -12 -8 -7 1 -12 -4 -11 -10 4 -18 -41 -27 -69
-13 -22 11 -22 11 -3 -5 32 -26 76 -15 103 25 13 19 68 83 123 143 56 59 95
107 87 106 -7 0 -25 -15 -40 -33z"/>
<path d="M2280 2631 c0 -3 38 -42 85 -86 47 -45 85 -80 85 -78 0 2 10 -3 22
-11 12 -9 29 -16 38 -16 8 0 4 6 -10 13 -37 18 -38 54 -3 68 23 8 30 7 40 -7
7 -10 13 -13 13 -7 0 19 -28 35 -57 31 -21 -2 -30 -10 -37 -33 l-9 -30 -71 74
c-39 40 -70 76 -69 80 1 4 -5 8 -13 8 -7 0 -14 -3 -14 -6z"/>
<path d="M2380 2595 c14 -8 30 -14 35 -14 6 0 -1 6 -15 14 -14 8 -29 14 -35
14 -5 0 1 -6 15 -14z"/>
<path d="M2310 2415 c102 -102 187 -185 190 -185 3 0 -78 83 -180 185 -102
102 -187 185 -190 185 -3 0 78 -83 180 -185z"/>
<path d="M2395 2550 c21 -22 40 -40 40 -40 1 0 11 11 22 24 l21 24 -27 11
c-24 11 -25 10 -7 -4 27 -21 13 -19 -34 5 -56 29 -59 25 -15 -20z"/>
<path d="M2921 2424 c0 -11 3 -14 6 -6 3 7 2 16 -1 19 -3 4 -6 -2 -5 -13z"/>
<path d="M2730 2139 c-22 -18 -22 -19 -3 -10 12 6 25 16 28 21 9 15 3 12 -25
-11z"/>
<path d="M2630 2095 c-19 -7 -28 -14 -20 -14 8 0 29 6 45 14 39 17 21 18 -25
0z"/>
<path d="M2428 2073 c12 -2 32 -2 45 0 12 2 2 4 -23 4 -25 0 -35 -2 -22 -4z"/>
<path d="M2543 2073 c9 -2 25 -2 35 0 9 3 1 5 -18 5 -19 0 -27 -2 -17 -5z"/>
<path d="M3661 2860 c0 -8 4 -24 9 -35 5 -13 9 -14 9 -5 0 8 -4 24 -9 35 -5
13 -9 14 -9 5z"/>
<path d="M1411 2844 c0 -11 3 -14 6 -6 3 7 2 16 -1 19 -3 4 -6 -2 -5 -13z"/>
<path d="M3641 2804 c0 -11 3 -14 6 -6 3 7 2 16 -1 19 -3 4 -6 -2 -5 -13z"/>
<path d="M3682 2780 c0 -14 2 -19 5 -12 2 6 2 18 0 25 -3 6 -5 1 -5 -13z"/>
<path d="M1391 2774 c0 -11 3 -14 6 -6 3 7 2 16 -1 19 -3 4 -6 -2 -5 -13z"/>
<path d="M3130 2759 c0 -2 9 -29 20 -59 19 -50 20 -52 15 -16 -5 32 -35 96
-35 75z"/>
<path d="M3605 2725 c4 -22 11 -62 15 -90 5 -38 9 -45 15 -31 4 10 3 38 -4 65
-6 25 -13 54 -16 65 -9 37 -17 30 -10 -9z"/>
<path d="M3692 2730 c0 -14 2 -19 5 -12 2 6 2 18 0 25 -3 6 -5 1 -5 -13z"/>
<path d="M1375 2730 c-3 -5 -1 -10 4 -10 6 0 11 5 11 10 0 6 -2 10 -4 10 -3 0
-8 -4 -11 -10z"/>
<path d="M3661 2714 c0 -11 3 -14 6 -6 3 7 2 16 -1 19 -3 4 -6 -2 -5 -13z"/>
<path d="M1367 2690 c-3 -11 -1 -20 4 -20 5 0 9 9 9 20 0 11 -2 20 -4 20 -2 0
-6 -9 -9 -20z"/>
<path d="M3702 2660 c0 -19 2 -27 5 -17 2 9 2 25 0 35 -3 9 -5 1 -5 -18z"/>
<path d="M3672 2640 c0 -14 2 -19 5 -12 2 6 2 18 0 25 -3 6 -5 1 -5 -13z"/>
<path d="M3168 2614 c-2 -25 -8 -29 -36 -32 -26 -3 -34 1 -42 20 -9 21 -10 20
-5 -7 4 -16 6 -41 6 -55 0 -14 3 -19 6 -12 3 7 25 12 59 12 l54 0 0 -41 0 -41
-60 4 c-49 2 -60 0 -58 -12 2 -10 19 -15 61 -16 66 -2 80 11 75 74 l-3 37 -52
3 c-55 3 -75 22 -24 22 23 0 30 5 34 28 3 15 2 31 -3 36 -5 5 -10 -4 -12 -20z"/>
<path d="M1357 2615 c-4 -8 -2 -17 3 -20 6 -4 10 3 10 14 0 25 -6 27 -13 6z"/>
<path d="M3041 2614 c0 -11 3 -14 6 -6 3 7 2 16 -1 19 -3 4 -6 -2 -5 -13z"/>
<path d="M3714 2495 c0 -71 1 -99 3 -62 2 37 2 96 0 130 -2 34 -3 4 -3 -68z"/>
<path d="M1284 2500 c0 -63 1 -89 3 -57 2 31 2 83 0 115 -2 31 -3 5 -3 -58z"/>
<path d="M3052 2504 c-4 -196 -89 -357 -242 -459 -96 -64 -165 -86 -290 -95
l-105 -7 85 -1 c90 -2 179 15 240 47 19 10 46 21 60 24 40 10 152 127 189 197
54 105 77 200 70 300 l-5 85 -2 -91z"/>
<path d="M3630 2463 c0 -247 -70 -481 -203 -678 -25 -37 -32 -52 -17 -40 27
24 119 162 153 230 24 48 87 219 87 233 -1 4 -7 -4 -16 -18 -11 -19 -14 -21
-10 -5 17 74 27 209 22 292 -3 53 -8 98 -11 101 -3 3 -5 -49 -5 -115z"/>
<path d="M3677 2543 c-2 -5 -1 -33 3 -63 l7 -55 2 63 c1 58 -2 73 -12 55z"/>
<path d="M3603 2450 c0 -36 2 -50 4 -32 2 17 2 47 0 65 -2 17 -4 3 -4 -33z"/>
<path d="M1821 2416 c-7 -9 -8 -17 -3 -20 6 -3 12 1 16 9 3 9 19 15 41 15 31
0 36 -3 41 -30 6 -29 24 -33 24 -5 0 39 -92 63 -119 31z"/>
<path d="M1952 2410 c0 -14 2 -19 5 -12 2 6 2 18 0 25 -3 6 -5 1 -5 -13z"/>
<path d="M3128 2413 c37 -4 42 -7 42 -29 0 -39 -47 -163 -89 -234 -41 -69
-189 -220 -216 -220 -10 0 -15 10 -15 28 0 24 -4 28 -32 30 -21 1 -28 -1 -20
-6 9 -6 12 -37 10 -117 l-3 -109 -145 -107 c-80 -59 -150 -108 -157 -108 -6
-1 -76 47 -155 105 l-143 106 -5 122 -6 121 -2 -122 -2 -122 33 -24 c17 -13
85 -63 149 -110 64 -48 123 -87 130 -87 19 0 279 185 306 218 6 9 12 41 13 71
1 65 16 171 18 128 0 -15 7 -30 15 -33 21 -8 129 79 183 149 52 65 108 157 97
157 -3 0 1 11 10 25 9 14 14 25 11 25 -4 0 1 10 9 21 8 12 12 27 10 34 -3 7
-1 16 5 19 6 4 8 13 5 20 -3 8 -1 17 5 20 6 4 8 13 4 21 -4 11 -19 15 -57 13
-50 -1 -50 -2 -8 -5z"/>
<path d="M1831 2364 c0 -11 3 -14 6 -6 3 7 2 16 -1 19 -3 4 -6 -2 -5 -13z"/>
<path d="M3672 2350 c0 -14 2 -19 5 -12 2 6 2 18 0 25 -3 6 -5 1 -5 -13z"/>
<path d="M3702 2335 c0 -16 2 -22 5 -12 2 9 2 23 0 30 -3 6 -5 -1 -5 -18z"/>
<path d="M1935 2326 c16 -78 104 -213 182 -279 27 -23 33 -36 33 -67 0 -21 -4
-41 -9 -44 -26 -16 -158 117 -223 225 -21 34 -38 58 -38 53 0 -20 72 -129 118
-178 51 -55 136 -126 151 -126 14 0 18 78 5 110 -7 15 -20 33 -31 38 -10 6
-15 13 -11 17 3 4 30 -11 60 -33 29 -21 63 -42 75 -46 12 -4 27 -13 33 -21 7
-8 29 -15 49 -15 36 0 36 1 -20 24 -149 61 -257 166 -315 304 -13 31 -23 50
-24 41 0 -9 9 -38 21 -64 34 -76 14 -63 -26 17 -20 40 -33 60 -30 44z"/>
<path d="M1292 2320 c0 -14 2 -19 5 -12 2 6 2 18 0 25 -3 6 -5 1 -5 -13z"/>
<path d="M1841 2320 c0 -8 4 -22 9 -30 12 -18 12 -2 0 25 -6 13 -9 15 -9 5z"/>
<path d="M3657 2306 c-4 -10 -5 -21 -2 -24 9 -9 17 6 13 25 -3 17 -4 17 -11
-1z"/>
<path d="M3692 2280 c0 -14 2 -19 5 -12 2 6 2 18 0 25 -3 6 -5 1 -5 -13z"/>
<path d="M1301 2264 c0 -11 3 -14 6 -6 3 7 2 16 -1 19 -3 4 -6 -2 -5 -13z"/>
<path d="M3036 2255 c-9 -26 -7 -32 5 -12 6 10 9 21 6 23 -2 3 -7 -2 -11 -11z"/>
<path d="M3651 2244 c0 -11 3 -14 6 -6 3 7 2 16 -1 19 -3 4 -6 -2 -5 -13z"/>
<path d="M3682 2230 c0 -14 2 -19 5 -12 2 6 2 18 0 25 -3 6 -5 1 -5 -13z"/>
<path d="M3652 2133 c-12 -37 -20 -69 -18 -71 2 -2 14 27 26 63 12 36 20 68
18 70 -2 3 -14 -26 -26 -62z"/>
<path d="M2936 2102 c-33 -37 -45 -53 -27 -37 31 29 96 105 89 105 -1 0 -30
-30 -62 -68z"/>
<path d="M1331 2150 c0 -8 6 -28 14 -45 17 -39 18 -21 0 25 -7 19 -14 28 -14
20z"/>
<path d="M1444 2097 c14 -60 84 -206 138 -288 66 -102 169 -214 253 -276 33
-24 42 -30 20 -12 -85 70 -212 211 -263 293 -49 77 -132 253 -136 288 -1 3 -5
10 -10 15 -5 5 -6 -4 -2 -20z"/>
<path d="M3620 2048 c0 -3 -7 -22 -15 -42 -8 -20 -13 -36 -10 -36 8 0 36 73
30 78 -3 3 -5 3 -5 0z"/>
<path d="M2568 2023 c7 -3 16 -2 19 1 4 3 -2 6 -13 5 -11 0 -14 -3 -6 -6z"/>
<path d="M2218 1978 c8 -8 12 -47 12 -109 0 -78 3 -99 17 -110 15 -13 15 -12
5 8 -7 12 -12 30 -12 41 0 25 25 46 42 36 7 -4 31 -9 53 -10 l40 -3 -42 10
c-43 10 -43 10 -43 55 0 42 2 45 21 39 15 -5 19 -4 15 4 -4 6 -20 11 -35 11
-15 0 -36 9 -46 20 -10 11 -23 20 -29 20 -6 0 -5 -5 2 -12z"/>
<path d="M1410 1954 c0 -6 7 -19 16 -30 14 -18 14 -18 3 6 -14 31 -19 36 -19
24z"/>
<path d="M2388 1953 c7 -3 16 -2 19 1 4 3 -2 6 -13 5 -11 0 -14 -3 -6 -6z"/>
<path d="M3550 1903 c-101 -181 -281 -358 -462 -458 -70 -38 -89 -53 -40 -33
188 81 453 339 526 512 22 52 12 44 -24 -21z"/>
<path d="M2720 1900 c0 -28 -5 -43 -16 -47 -12 -4 -13 -8 -3 -14 7 -4 19 -3
26 3 15 12 17 84 3 93 -6 4 -10 -10 -10 -35z"/>
<path d="M2468 1903 c18 -2 45 -2 60 0 15 2 0 4 -33 4 -33 0 -45 -2 -27 -4z"/>
<path d="M2590 1830 l-55 -7 50 0 c28 -1 61 3 75 7 31 10 10 10 -70 0z"/>
<path d="M2398 1823 c12 -2 30 -2 40 0 9 3 -1 5 -23 4 -22 0 -30 -2 -17 -4z"/>
<path d="M1560 1725 c13 -14 26 -25 28 -25 3 0 -5 11 -18 25 -13 14 -26 25
-28 25 -3 0 5 -11 18 -25z"/>
<path d="M2270 1746 c0 -2 8 -10 18 -17 15 -13 16 -12 3 4 -13 16 -21 21 -21
13z"/>
<path d="M2340 1696 c0 -2 8 -10 18 -17 15 -13 16 -12 3 4 -13 16 -21 21 -21
13z"/>
<path d="M1659 1620 c36 -36 82 -76 101 -89 26 -17 24 -14 -10 15 -25 21 -70
61 -101 89 -46 42 -45 39 10 -15z"/>
<path d="M2445 1617 c22 -20 44 -36 48 -37 5 0 -4 10 -20 23 -53 42 -68 50
-28 14z"/>
<path d="M1860 1466 c0 -3 9 -10 20 -16 11 -6 20 -8 20 -6 0 3 -9 10 -20 16
-11 6 -20 8 -20 6z"/>
<path d="M1930 1466 c0 -3 9 -10 20 -16 11 -6 20 -8 20 -6 0 3 -9 10 -20 16
-11 6 -20 8 -20 6z"/>
<path d="M1930 1425 c0 -7 101 -57 106 -53 2 2 -21 16 -51 31 -30 15 -55 25
-55 22z"/>
<path d="M2030 1410 c8 -5 20 -10 25 -10 6 0 3 5 -5 10 -8 5 -19 10 -25 10 -5
0 -3 -5 5 -10z"/>
<path d="M2950 1375 c-14 -8 -20 -14 -15 -14 6 0 21 6 35 14 14 8 21 14 15 14
-5 0 -21 -6 -35 -14z"/>
<path d="M2080 1350 c8 -5 20 -10 25 -10 6 0 3 5 -5 10 -8 5 -19 10 -25 10 -5
0 -3 -5 5 -10z"/>
<path d="M2890 1350 c-8 -5 -10 -10 -5 -10 6 0 17 5 25 10 8 5 11 10 5 10 -5
0 -17 -5 -25 -10z"/>
<path d="M2483 1313 c9 -2 25 -2 35 0 9 3 1 5 -18 5 -19 0 -27 -2 -17 -5z"/>
<path d="M2708 1293 c7 -3 16 -2 19 1 4 3 -2 6 -13 5 -11 0 -14 -3 -6 -6z"/>
<path d="M2328 1283 c7 -3 16 -2 19 1 4 3 -2 6 -13 5 -11 0 -14 -3 -6 -6z"/>
<path d="M2643 1283 c9 -2 23 -2 30 0 6 3 -1 5 -18 5 -16 0 -22 -2 -12 -5z"/>
<path d="M2453 1273 c26 -2 68 -2 95 0 26 2 4 3 -48 3 -52 0 -74 -1 -47 -3z"/>
</g>
</svg>
